<?xml version="1.0" encoding="utf-8"?>
<!-- Generator: Adobe Illustrator 18.1.1, SVG Export Plug-In . SVG Version: 6.00 Build 0)  -->
<svg version="1.1" id="Capa_1" xmlns="http://www.w3.org/2000/svg" xmlns:xlink="http://www.w3.org/1999/xlink" x="0px" y="0px"
	 width="93.8px" height="28.9px" viewBox="0 0 93.8 28.9" enable-background="new 0 0 93.8 28.9" xml:space="preserve">
<g>
	<path fill="#D75F00" d="M76.5,5.2c1.8-2.3,2.5-3,3.2-3c0.7,0,2.7,8.6,2.7,13.4c0,4.6-3.8,11.4-4.4,12c-0.3,0.3-1.1,0.6-2.9,0.6
		l-0.3,0.7h9.4l0.3-0.7c-2.1,0-2.9-0.2-2.9-0.9c0-0.5,0.9-2.2,1.6-4l1.9-4.7c2.2-5.5,8.7-12.1,8.7-16.4C93.8,0.9,93,0,91.9,0
		c-1,0-1.8,0.8-1.8,1.7c0,1,0.7,0.9,0.7,1.7c0,1.9-3.5,9.4-6,13.6h-0.1C84.7,7.6,82.6,0,81.2,0c-1.1,0-3,1.6-5.2,4.9L76.5,5.2z"/>
	<path fill="#FFFFFF" d="M65.8,13.5c0-1,0.2-1.9,0.7-2.6c0.4-0.7,1.1-1,2-1s1.5,0.3,2,1c0.5,0.7,0.7,1.6,0.7,2.6v0.2
		c0,1.1-0.2,1.9-0.7,2.6c-0.5,0.7-1.1,1-2,1c-0.9,0-1.5-0.3-2-1c-0.4-0.7-0.7-1.6-0.7-2.6V13.5z M64,13.7c0,1.5,0.4,2.7,1.2,3.7
		c0.8,1,1.9,1.4,3.3,1.4c1.4,0,2.5-0.5,3.3-1.4c0.8-1,1.2-2.2,1.2-3.7v-0.2c0-1.5-0.4-2.7-1.2-3.7c-0.8-1-1.9-1.4-3.3-1.4
		c-1.4,0-2.5,0.5-3.3,1.4c-0.8,1-1.2,2.2-1.2,3.7V13.7z M61.1,4.1h-1.8V6h1.8V4.1z M57.8,18.6h4.8v-1.2l-1.5-0.3V8.5h-3.3v1.2
		l1.5,0.3v7.2l-1.5,0.3V18.6z M55.7,9.5c-0.4-0.4-0.9-0.6-1.5-0.8c-0.6-0.2-1.3-0.3-2-0.3c-1.1,0-2,0.3-2.7,0.9
		c-0.7,0.6-1,1.3-1,2.1c0,0.8,0.3,1.4,0.9,1.9c0.6,0.5,1.5,0.8,2.7,1.1c0.9,0.2,1.4,0.4,1.7,0.7c0.3,0.3,0.5,0.6,0.5,1
		c0,0.4-0.2,0.8-0.6,1c-0.4,0.3-0.9,0.4-1.5,0.4c-0.4,0-0.7,0-1.1-0.1c-0.4-0.1-0.6-0.2-0.9-0.4l-0.3-1.3h-1.4l0,2.3
		c0.5,0.3,1,0.6,1.6,0.8c0.6,0.2,1.3,0.3,2,0.3c1.2,0,2.1-0.3,2.8-0.8c0.7-0.5,1.1-1.3,1.1-2.2c0-0.8-0.3-1.4-0.9-1.9
		c-0.6-0.5-1.6-0.8-2.8-1.1c-0.9-0.2-1.4-0.4-1.7-0.6c-0.3-0.2-0.4-0.5-0.4-0.9c0-0.4,0.2-0.7,0.5-1c0.3-0.3,0.8-0.4,1.4-0.4
		c0.4,0,0.8,0.1,1.1,0.2c0.3,0.1,0.6,0.3,0.8,0.5l0.3,1.2h1.4L55.7,9.5z M43.9,10.5c0.4,0.5,0.6,1.1,0.6,1.8v0.2h-4.6l0,0
		c0.1-0.8,0.4-1.4,0.8-1.9c0.4-0.5,1-0.8,1.6-0.8C43,9.8,43.5,10,43.9,10.5 M44.6,18.4c0.6-0.2,1.1-0.5,1.4-0.9l-0.7-1.2
		c-0.3,0.3-0.7,0.6-1.2,0.7c-0.5,0.2-1,0.3-1.6,0.3c-0.8,0-1.5-0.3-2-0.9c-0.5-0.6-0.7-1.4-0.7-2.4l0,0h6.5v-1.1
		c0-1.4-0.3-2.4-1-3.3c-0.7-0.8-1.7-1.2-3.1-1.2c-1.2,0-2.2,0.5-3,1.4c-0.8,0.9-1.3,2.1-1.3,3.6v0.4c0,1.5,0.4,2.7,1.2,3.6
		c0.8,0.9,1.9,1.4,3.3,1.4C43.3,18.8,44,18.6,44.6,18.4 M32.3,6.1v2.4h-1.6v1.4h1.6V16c0,1,0.2,1.7,0.7,2.1c0.4,0.4,1,0.7,1.8,0.7
		c0.3,0,0.7,0,1-0.1c0.3-0.1,0.6-0.2,0.8-0.3l-0.3-1.2c-0.1,0-0.3,0.1-0.5,0.1c-0.2,0-0.4,0-0.5,0c-0.3,0-0.6-0.1-0.8-0.3
		c-0.2-0.2-0.3-0.5-0.3-1V9.9h1.9V8.5h-1.9V6.1H32.3z M24.3,10v7.2l-1.5,0.3v1.2h4.8v-1.2l-1.5-0.3v-5.7c0.2-0.4,0.4-0.7,0.8-0.9
		c0.3-0.2,0.7-0.3,1.2-0.3l1,0.1l0.2-1.7c-0.1,0-0.2,0-0.3-0.1c-0.2,0-0.3,0-0.4,0c-0.5,0-1,0.1-1.4,0.4c-0.4,0.3-0.8,0.7-1.1,1.2
		L26,8.5h-3.1v1.2L24.3,10z M14.8,16.9c-0.3-0.2-0.4-0.6-0.4-1c0-0.5,0.2-0.9,0.7-1.3c0.4-0.3,1-0.5,1.8-0.5h1.9v1.6
		c-0.2,0.4-0.6,0.8-1.1,1c-0.5,0.3-1.1,0.4-1.7,0.4C15.4,17.2,15,17.1,14.8,16.9 M21.3,18.6v-1.2l-0.7-0.1c0-0.1,0-0.2,0-0.4
		c0-0.1,0-0.3,0-0.4v-4.8c0-1.1-0.4-1.9-1.1-2.5c-0.7-0.6-1.6-0.9-2.8-0.9c-0.8,0-1.5,0.1-2.1,0.3C14,8.9,13.4,9.2,13,9.6v1.9h1.4
		l0.2-1.1c0.2-0.2,0.5-0.4,0.8-0.5c0.3-0.1,0.8-0.2,1.2-0.2c0.7,0,1.2,0.2,1.5,0.5c0.4,0.3,0.6,0.8,0.6,1.4v1.2h-1.9
		c-1.3,0-2.4,0.3-3.2,0.8c-0.8,0.5-1.2,1.2-1.2,2.2c0,0.9,0.3,1.6,0.8,2.2c0.5,0.5,1.3,0.8,2.4,0.8c0.6,0,1.2-0.2,1.7-0.4
		c0.5-0.3,1-0.7,1.3-1.1c0,0.2,0,0.4,0.1,0.6c0,0.2,0.1,0.5,0.1,0.7H21.3z M10.5,6.8c-0.4-0.5-1-0.9-1.7-1.3C7.9,5.1,7,4.9,6,4.9
		c-1.8,0-3.2,0.6-4.3,1.9S0,9.8,0,11.7v0.2c0,2,0.6,3.6,1.7,4.9c1.1,1.3,2.6,1.9,4.3,1.9c1,0,1.9-0.2,2.7-0.6
		c0.8-0.4,1.4-0.8,1.7-1.3v-2.4H9.2l-0.3,1.9c-0.3,0.3-0.7,0.5-1.2,0.7c-0.5,0.2-1.1,0.3-1.7,0.3c-1.3,0-2.3-0.5-3.1-1.5
		c-0.7-1-1.1-2.3-1.1-3.9v-0.2c0-1.6,0.4-2.8,1.1-3.9c0.8-1,1.8-1.5,3.2-1.5c0.6,0,1.1,0.1,1.5,0.3C8.2,6.8,8.5,7,8.8,7.3l0.3,1.9
		h1.3V6.8z"/>
</g>
</svg>
