<?xml version="1.0" encoding="utf-8"?>
<!-- Generator: Adobe Illustrator 18.1.1, SVG Export Plug-In . SVG Version: 6.00 Build 0)  -->
<svg version="1.1" id="Capa_1" xmlns="http://www.w3.org/2000/svg" xmlns:xlink="http://www.w3.org/1999/xlink" x="0px" y="0px"
	 width="303px" height="44.2px" viewBox="270.1 281.8 303 44.2" enable-background="new 270.1 281.8 303 44.2" xml:space="preserve"
	>
<g>
	<path fill="#383A35" d="M419.6,302.5c0-2.3,0.5-4.3,1.5-5.8c1-1.6,2.4-2.3,4.4-2.3s3.4,0.8,4.5,2.3c1,1.6,1.6,3.5,1.6,5.8v0.5
		c0,2.3-0.5,4.3-1.6,5.8c-1,1.6-2.4,2.3-4.4,2.3s-3.5-0.8-4.5-2.3c-1-1.6-1.5-3.5-1.5-5.8V302.5z M415.6,303c0,3.3,0.9,6.1,2.8,8.2
		c1.8,2.2,4.3,3.2,7.3,3.2c3.1,0,5.6-1.1,7.3-3.2c1.8-2.2,2.8-4.9,2.8-8.2v-0.5c0-3.3-0.9-6.1-2.8-8.2c-1.8-2.2-4.3-3.2-7.3-3.2
		c-3.1,0-5.6,1.1-7.3,3.2c-1.7,2.2-2.8,4.9-2.8,8.2V303z M409,281.6h-4.1v4.2h4.1V281.6z M401.5,314h10.8v-2.6l-3.4-0.6v-19.1h-7.4
		v2.6l3.4,0.6v16l-3.4,0.6L401.5,314L401.5,314z M396.8,293.6c-0.9-0.8-2.1-1.4-3.4-1.8c-1.4-0.5-2.9-0.7-4.6-0.7
		c-2.4,0-4.5,0.7-6.1,1.9s-2.3,2.8-2.3,4.7c0,1.8,0.7,3.1,2.1,4.1s3.4,1.8,6.2,2.4c1.9,0.4,3.2,1,3.9,1.6c0.7,0.6,1.1,1.4,1.1,2.3
		c0,1-0.4,1.8-1.3,2.3c-0.8,0.6-1.9,0.9-3.4,0.9c-0.9,0-1.7-0.1-2.4-0.3c-0.8-0.2-1.5-0.5-1.9-1l-0.8-3h-3v5.1
		c1.1,0.8,2.3,1.3,3.6,1.8c1.4,0.4,2.9,0.6,4.6,0.6c2.6,0,4.7-0.6,6.3-1.8c1.7-1.3,2.4-2.8,2.4-4.8c0-1.8-0.7-3.1-2.1-4.2
		c-1.4-1.1-3.5-1.8-6.3-2.4c-1.9-0.4-3.1-0.9-3.8-1.4c-0.6-0.5-1-1.2-1-2.1c0-0.9,0.4-1.7,1.1-2.3c0.7-0.7,1.8-1,3.2-1
		c1,0,1.8,0.1,2.5,0.4c0.8,0.3,1.4,0.7,1.8,1.2l0.7,2.8h3L396.8,293.6z M370.5,296c0.9,1.1,1.3,2.4,1.3,4v0.6h-10.3v-0.1
		c0.2-1.8,0.8-3.2,1.8-4.3c1-1.2,2.2-1.8,3.5-1.8C368.4,294.3,369.7,294.9,370.5,296 M372.1,313.7c1.4-0.5,2.3-1.2,3.2-1.9l-1.6-2.6
		c-0.8,0.7-1.7,1.3-2.8,1.7c-1.1,0.4-2.3,0.6-3.6,0.6c-1.8,0-3.3-0.7-4.4-2.1c-1.1-1.4-1.6-3.1-1.7-5.3l0.1-0.1H376v-2.5
		c0-3-0.8-5.5-2.3-7.3s-3.8-2.8-6.8-2.8c-2.6,0-4.9,1.1-6.8,3.2c-2.1,1.9-3,4.6-3,7.8v0.9c0,3.3,0.9,6.1,2.8,8.1
		c1.8,2.1,4.3,3.1,7.4,3.1C369.2,314.5,370.7,314.1,372.1,313.7 M344.5,286.1v5.5H341v3h3.5v13.7c0,2.2,0.5,3.7,1.5,4.7
		c1,1,2.3,1.5,4,1.5c0.8,0,1.5-0.1,2.3-0.2c0.8-0.2,1.3-0.4,1.7-0.6l-0.6-2.8c-0.3,0.1-0.7,0.1-1.2,0.2c-0.5,0.1-0.9,0.1-1.2,0.1
		c-0.7,0-1.3-0.2-1.8-0.7c-0.4-0.4-0.7-1.2-0.7-2.3v-13.7h4.3v-2.9h-4.3v-5.5H344.5z M326.7,294.8v16l-3.4,0.6v2.6h10.8v-2.6
		l-3.4-0.6V298c0.4-0.9,1-1.7,1.7-2.2c0.7-0.5,1.7-0.8,2.8-0.8l2.3,0.1l0.6-3.8c-0.2-0.1-0.4-0.1-0.8-0.2c-0.3,0-0.7-0.1-1-0.1
		c-1.2,0-2.3,0.3-3.2,1c-1,0.7-1.8,1.6-2.3,2.8l-0.4-3.1h-7v2.6L326.7,294.8z M305.1,310.2c-0.6-0.5-0.9-1.3-0.9-2.3
		c0-1.1,0.5-2.1,1.5-2.8c1-0.8,2.3-1.2,4-1.2h4.3v3.7c-0.5,0.9-1.3,1.7-2.4,2.3c-1.1,0.7-2.3,1-3.7,1
		C306.6,311,305.7,310.7,305.1,310.2 M319.8,314v-2.6l-1.7-0.2c0-0.3,0-0.6-0.1-0.8c0-0.3,0-0.6,0-0.9v-10.8c0-2.4-0.8-4.3-2.3-5.6
		c-1.6-1.3-3.6-1.9-6.2-1.9c-1.7,0-3.3,0.3-4.7,0.8c-1.5,0.5-2.8,1.2-3.7,1.9v4.4h3.1l0.4-2.3c0.5-0.5,1.1-0.8,1.8-1.1
		s1.7-0.4,2.8-0.4c1.5,0,2.6,0.4,3.4,1.2c0.8,0.8,1.3,1.8,1.3,3.1v2.6h-4.2c-3,0-5.4,0.6-7.1,1.8c-1.8,1.2-2.5,2.8-2.5,4.9
		c0,2.1,0.6,3.7,1.8,4.8c1.2,1.2,3,1.8,5.4,1.8c1.4,0,2.6-0.3,3.8-1c1.1-0.7,2.2-1.5,2.9-2.5c0,0.5,0.1,1,0.1,1.5
		c0.1,0.5,0.2,1.1,0.3,1.7h5.4V314H319.8z M295.5,287.7c-0.9-1.1-2.2-2.2-3.9-3c-1.8-0.9-3.8-1.4-6.1-1.4c-4,0-7.2,1.5-9.8,4.3
		s-3.7,6.7-3.7,11.1v0.4c0,4.4,1.3,8,3.8,10.9s5.8,4.4,9.7,4.4c2.3,0,4.3-0.4,6.1-1.3c1.8-0.9,3-1.8,3.9-3v-5.4h-2.9l-0.8,4.3
		c-0.6,0.6-1.5,1.2-2.6,1.6c-1.1,0.4-2.3,0.7-3.7,0.7c-2.9,0-5.2-1.2-6.8-3.4c-1.7-2.3-2.4-5.2-2.4-8.7v-0.5c0-3.5,0.9-6.3,2.5-8.7
		c1.7-2.3,4.1-3.4,7.2-3.4c1.4,0,2.5,0.2,3.4,0.6c1,0.4,1.8,1,2.4,1.6l0.8,4.3h3V287.7z"/>
	<path fill="#3FAE2A" d="M557,298.6c0,1.3-0.5,2.8-1.7,3.9c-0.8,0.8-2.9,1.9-6.2,2.8c1.3-5.6,3.2-8.7,6.1-8.7
		C556.5,296.6,557,297.3,557,298.6 M557.6,311c-2.3,1.7-4,2.4-5.4,2.4c-3.1,0-4.2-3.3-3.1-7.3c5.4-1.6,10.7-4,10.7-7.5
		c0-1.9-1.4-3-3.8-3c-5.8,0-10.3,7.4-10.3,13.3c0,3.6,2.1,6.3,4.6,6.3c1.9,0,5-1.4,7.7-3.5L557.6,311z M515,301.2
		c1.2-1.4,2.1-2.3,2.4-2.3c0.2,0,0.3,0.4,0.1,1.1l-2.9,14.4c-0.1,0.7,0,1,0.8,1h1.5c0.4,0,0.6-0.3,0.7-0.7l1-4.8
		c0.7-3.1,5-8.2,6.9-10.3c1.1-1.1,1.9-1.7,2.4-1.7c0.5,0,0.5,0.3,0.4,1.1l-3.1,15.6c-0.1,0.5,0.1,0.7,0.5,0.7h1.7
		c0.5,0,0.6,0,0.7-0.8l1-4.8c0.7-3.3,4.9-8.1,6.3-9.6c1.2-1.2,2.5-2.2,3-2.2c0.3,0,0.3,0.4,0.1,1.3l-2.8,13.5
		c-0.3,1.5-0.1,2.5,1,2.5c1.5,0,4.4-3.1,6-5.2l-0.6-0.5c-1.1,1.4-2.5,3-3.1,3c-0.1,0-0.2-0.2-0.1-0.6l2.5-12.6
		c0.1-0.5,0.2-1,0.2-1.8c0-1.2-0.4-2.1-1.3-2.1c-1.8,0-6.9,4.5-10.4,10.3l-0.1-0.1l1-4.6c0.3-1.7,0.5-2.8,0.5-3.5
		c0-1.3-0.4-2.1-1.3-2.1c-2.2,0-7.1,4.6-10.7,10.7l-0.1-0.1l1.8-9.1c0.2-1.1-0.2-1.5-0.7-1.5c-1.1,0-3.5,2.2-5.8,5L515,301.2z
		 M507.9,303.1c0,4.3-2.2,10.3-6,10.3c-1.6,0-3.2-1.9-3.2-5.8c0-4.7,2.6-10.3,5.6-10.3C506.4,297.4,507.9,299.9,507.9,303.1
		 M495.7,307.8c0,3.9,1.9,7.4,4.2,7.4c2.2,0,11-3.9,11-12.7c0-5-2.9-6.8-4.3-6.8C503.8,295.6,495.7,300.3,495.7,307.8 M492.7,310.5
		c-1.5,1.8-3.3,3-4.7,3c-1.7,0-2.8-1.4-2.8-3.5c0-3.2,2.1-12.5,5.1-12.5c1.3,0,1.9,1.2,3.5,1.2c0.7,0,1.2-0.6,1.2-1.5
		c0-1.1-0.9-1.7-2.3-1.7c-6,0-10.3,9.5-10.3,14.9c0,2.9,1.6,4.8,4,4.8c2.1,0,4.7-1.7,6.9-4.3L492.7,310.5z M466.3,305.5l1.7-8.4
		c0.2-1.2-0.3-1.7-0.8-1.7c-1.2,0-4.2,3.1-6,5.8l0.6,0.5c1.2-1.8,2.2-2.8,2.4-2.8c0.2,0,0.3,0.4,0.2,1.1l-2.9,14.3
		c-0.1,0.7,0.1,0.9,0.7,0.9h1.5c0.5,0,0.7-0.3,0.8-0.8l1.5-7.1c2.5-3.2,5.2-6.3,6.5-7.7c1.3-1.3,2.1-1.8,2.5-1.8
		c0.6,0,1,0.5,0.7,2.1l-3.1,12c-0.6,2.2,0,3.4,1.1,3.4c1.7,0,5.1-3.2,6.4-5.4l-0.5-0.4c-1.3,1.6-3.3,3.9-3.9,3.9
		c-0.5,0-0.5-0.6-0.3-1.4l2.9-10.8c0.3-1.1,0.3-1.8,0.4-2.6c0-1.5-0.6-2.8-1.8-2.8C474.8,295.6,470.5,300.2,466.3,305.5L466.3,305.5
		L466.3,305.5z M457.9,289.7c0.5-2.3,1.6-3.2,4.1-3.2h0.4l0.2-0.9H451l-0.2,0.9h0.6c2.4,0,3.2,1.2,2.8,3.4l-4.1,20.2
		c-0.5,2.3-1.3,3.5-4.5,3.6l-0.2,0.9h12l0.2-0.9h-0.7c-2.5,0-3.6-1.1-3-4L457.9,289.7z"/>
</g>
<g>
	<path fill="#999999" d="M564.6,291.5l-3.6-1.1l0.6-1.9l3.6,1.4l-0.1-4.2h2l-0.1,4.2l3.6-1.4l0.6,1.9l-3.7,1.1l2.4,3.3l-1.6,1.2
		l-2.2-3.5l-2.2,3.4l-1.6-1.1L564.6,291.5z"/>
</g>
</svg>
