<?xml version="1.0" encoding="utf-8"?>
<!-- Generator: Adobe Illustrator 18.1.1, SVG Export Plug-In . SVG Version: 6.00 Build 0)  -->
<svg version="1.1" id="Capa_1" xmlns="http://www.w3.org/2000/svg" xmlns:xlink="http://www.w3.org/1999/xlink" x="0px" y="0px"
	 width="98.1px" height="22.1px" viewBox="0 0 98.1 22.1" enable-background="new 0 0 98.1 22.1" xml:space="preserve">
<g>
	<path fill="#FFFFFF" d="M66.4,11.5c0-1.1,0.2-1.9,0.7-2.6c0.4-0.7,1.1-1.1,2-1.1c0.9,0,1.6,0.4,2,1.1c0.5,0.7,0.7,1.6,0.7,2.6v0.2
		c0,1.1-0.2,2-0.7,2.7c-0.5,0.7-1.1,1-2,1c-0.9,0-1.6-0.3-2-1c-0.5-0.7-0.7-1.6-0.7-2.7V11.5z M64.5,11.7c0,1.5,0.4,2.7,1.2,3.7
		c0.8,1,1.9,1.4,3.3,1.4c1.4,0,2.5-0.5,3.3-1.4c0.8-1,1.2-2.2,1.2-3.7v-0.2c0-1.5-0.4-2.7-1.2-3.7c-0.8-1-1.9-1.4-3.3-1.4
		c-1.4,0-2.5,0.5-3.3,1.5c-0.8,1-1.2,2.2-1.2,3.7V11.7z M61.6,2.1h-1.8V4h1.8V2.1z M58.2,16.7h4.9v-1.2l-1.5-0.3V6.6h-3.4v1.2
		L59.8,8v7.2l-1.5,0.3V16.7z M56.1,7.5c-0.4-0.4-0.9-0.6-1.5-0.8c-0.6-0.2-1.3-0.3-2.1-0.3c-1.1,0-2,0.3-2.7,0.9
		c-0.7,0.6-1.1,1.3-1.1,2.1c0,0.8,0.3,1.4,0.9,1.9c0.6,0.5,1.5,0.8,2.8,1.1c0.9,0.2,1.4,0.4,1.7,0.7c0.3,0.3,0.5,0.6,0.5,1
		c0,0.4-0.2,0.8-0.6,1c-0.4,0.3-0.9,0.4-1.5,0.4c-0.4,0-0.8,0-1.1-0.1c-0.4-0.1-0.7-0.2-0.9-0.4l-0.3-1.4h-1.4l0,2.3
		c0.5,0.3,1,0.6,1.6,0.8c0.6,0.2,1.3,0.3,2.1,0.3c1.2,0,2.1-0.3,2.8-0.8c0.7-0.6,1.1-1.3,1.1-2.2c0-0.8-0.3-1.4-0.9-1.9
		s-1.6-0.8-2.8-1.1c-0.9-0.2-1.4-0.4-1.7-0.6c-0.3-0.2-0.4-0.5-0.4-0.9c0-0.4,0.2-0.7,0.5-1c0.3-0.3,0.8-0.4,1.5-0.4
		c0.4,0,0.8,0.1,1.2,0.2c0.3,0.1,0.6,0.3,0.8,0.5l0.3,1.2h1.4L56.1,7.5z M44.3,8.5c0.4,0.5,0.6,1.1,0.6,1.8v0.2h-4.7l0,0
		c0.1-0.8,0.4-1.4,0.8-2c0.4-0.5,1-0.8,1.6-0.8C43.3,7.8,43.9,8.1,44.3,8.5 M45,16.5c0.6-0.2,1.1-0.5,1.4-0.9l-0.7-1.2
		c-0.3,0.3-0.7,0.6-1.2,0.7c-0.5,0.2-1,0.3-1.6,0.3c-0.9,0-1.5-0.3-2-0.9c-0.5-0.6-0.7-1.4-0.7-2.4l0,0h6.6v-1.1
		c0-1.4-0.3-2.5-1.1-3.3c-0.7-0.8-1.7-1.2-3.1-1.2c-1.2,0-2.2,0.5-3,1.4c-0.9,1-1.3,2.2-1.3,3.6v0.4c0,1.5,0.4,2.7,1.2,3.6
		c0.8,0.9,1.9,1.4,3.4,1.4C43.7,16.9,44.4,16.7,45,16.5 M32.6,4.1v2.4H31v1.4h1.6v6.1c0,1,0.2,1.7,0.7,2.1c0.4,0.5,1,0.7,1.8,0.7
		c0.3,0,0.7,0,1-0.1c0.3-0.1,0.6-0.2,0.8-0.3l-0.3-1.3c-0.1,0-0.3,0.1-0.5,0.1c-0.2,0-0.4,0-0.5,0c-0.3,0-0.6-0.1-0.8-0.3
		c-0.2-0.2-0.3-0.5-0.3-1V7.9h1.9V6.6h-1.9V4.1H32.6z M24.5,8v7.2L23,15.5v1.2h4.9v-1.2l-1.5-0.3V9.4c0.2-0.4,0.4-0.7,0.8-1
		c0.3-0.2,0.7-0.3,1.2-0.3l1,0.1l0.2-1.7c-0.1,0-0.2,0-0.3-0.1c-0.2,0-0.3,0-0.4,0c-0.5,0-1,0.1-1.4,0.4C27,7.1,26.7,7.5,26.4,8
		l-0.2-1.5H23v1.2L24.5,8z M14.9,15c-0.3-0.2-0.4-0.6-0.4-1c0-0.5,0.2-0.9,0.7-1.3c0.4-0.3,1-0.5,1.8-0.5h2v1.7
		c-0.2,0.4-0.6,0.8-1.1,1.1c-0.5,0.3-1.1,0.4-1.7,0.4C15.6,15.3,15.2,15.2,14.9,15 M21.5,16.7v-1.2l-0.7-0.1c0-0.1,0-0.2,0-0.4
		c0-0.1,0-0.3,0-0.4V9.8c0-1.1-0.4-1.9-1.1-2.5c-0.7-0.6-1.6-0.9-2.8-0.9c-0.8,0-1.5,0.1-2.1,0.3c-0.7,0.2-1.2,0.5-1.7,0.9v2h1.4
		l0.2-1.1c0.2-0.2,0.5-0.4,0.9-0.5c0.4-0.1,0.8-0.2,1.2-0.2c0.7,0,1.2,0.2,1.6,0.5c0.4,0.3,0.6,0.8,0.6,1.4v1.2H17
		c-1.4,0-2.4,0.3-3.2,0.8c-0.8,0.5-1.2,1.3-1.2,2.2c0,0.9,0.3,1.7,0.8,2.2c0.5,0.5,1.3,0.8,2.4,0.8c0.6,0,1.2-0.2,1.7-0.5
		c0.5-0.3,1-0.7,1.3-1.1c0,0.2,0,0.4,0.1,0.7c0,0.2,0.1,0.5,0.1,0.7H21.5z M10.5,4.8c-0.4-0.5-1-0.9-1.8-1.3C8,3.1,7.1,2.9,6,2.9
		c-1.8,0-3.3,0.7-4.4,2S0,7.8,0,9.8V10c0,2,0.6,3.6,1.7,4.9s2.6,2,4.3,2c1,0,1.9-0.2,2.7-0.6c0.8-0.4,1.4-0.8,1.8-1.3v-2.4H9.2
		l-0.3,1.9c-0.3,0.3-0.7,0.5-1.2,0.7c-0.5,0.2-1.1,0.3-1.7,0.3c-1.3,0-2.4-0.5-3.1-1.5c-0.7-1-1.1-2.3-1.1-3.9V9.8
		c0-1.6,0.4-2.9,1.1-3.9c0.8-1,1.8-1.5,3.3-1.5c0.6,0,1.1,0.1,1.6,0.3C8.2,4.8,8.6,5,8.9,5.3l0.3,1.9h1.3V4.8z"/>
	<path fill="#3FAE2A" d="M76.6,6.6c1.8-3,2.6-4,3.6-4c0.7,0,1.2,0.5,1.9,2.4l2.7,6.7l-2.5,3c-1.7,2.1-3.3,3.7-4.9,3.7
		c-1.1,0-1.7-0.8-1.7-2.9h-0.9c-0.8,2-1.2,3.7-1.2,4.7c0,1.1,0.6,1.8,1.5,1.8c1.8,0,4-1.8,7.7-6.3l2.4-2.9l2.8,6.9
		c0.6,1.5,1.4,2.3,2.4,2.3c1.9,0,4.1-3.4,5.4-6.3L95,15.3c-1.5,2.9-2.2,3.8-3,3.8c-0.7,0-1.3-0.8-2.3-3.4L87.4,10l2.9-3.9
		c1.7-2.2,3-3.2,4.4-3.2c1.2,0,1.9,0.8,2,2.1h0.9c0.3-1.2,0.4-1.7,0.4-2.5c0-1.5-0.9-2.6-2.2-2.6c-1.8,0-3.8,2.2-6,5.3L87,9L85,4
		c-1.3-3.3-1.9-4-3.4-4c-1.7,0-3.2,1.5-5.9,6.1L76.6,6.6z"/>
</g>
</svg>
