<?xml version="1.0" encoding="utf-8"?>
<!-- Generator: Adobe Illustrator 18.1.1, SVG Export Plug-In . SVG Version: 6.00 Build 0)  -->
<svg version="1.1" id="Capa_1" xmlns="http://www.w3.org/2000/svg" xmlns:xlink="http://www.w3.org/1999/xlink" x="0px" y="0px"
	 width="303px" height="44.2px" viewBox="270.1 281.8 303 44.2" enable-background="new 270.1 281.8 303 44.2" xml:space="preserve"
	>
<g>
	<g>
		<path fill="#383A35" d="M421,302.9c0-2.4,0.5-4.3,1.5-5.9c1-1.6,2.5-2.4,4.4-2.4s3.5,0.8,4.5,2.4c1,1.6,1.5,3.6,1.5,5.9v0.5
			c0,2.4-0.5,4.3-1.5,5.9c-1,1.6-2.5,2.4-4.4,2.4s-3.5-0.8-4.5-2.4c-1-1.6-1.5-3.6-1.5-5.9V302.9z M416.9,303.4
			c0,3.3,0.9,6.1,2.8,8.3c1.8,2.2,4.3,3.3,7.4,3.3c3.1,0,5.5-1.1,7.4-3.3c1.8-2.2,2.8-4.9,2.8-8.3v-0.5c0-3.3-0.9-6.1-2.8-8.3
			c-1.8-2.2-4.3-3.3-7.4-3.3c-3.2,0-5.5,1.1-7.4,3.3c-1.8,2.2-2.8,4.9-2.8,8.3V303.4z M410.3,281.8h-4.2v4.3h4.2V281.8z
			 M402.8,314.5h11v-2.7l-3.5-0.6v-19.4h-7.5v2.7l3.5,0.6v16.2l-3.5,0.6V314.5L402.8,314.5z M398.1,293.9c-0.9-0.8-2.1-1.4-3.5-1.9
			c-1.4-0.5-2.9-0.7-4.6-0.7c-2.5,0-4.5,0.7-6.1,2s-2.4,2.9-2.4,4.8c0,1.8,0.7,3.2,2.1,4.2c1.4,1,3.5,1.9,6.2,2.5
			c2,0.4,3.3,1,3.9,1.5c0.7,0.6,1,1.4,1,2.3c0,1-0.4,1.8-1.3,2.4c-0.8,0.6-2,0.9-3.5,0.9c-0.9,0-1.7-0.1-2.5-0.3
			c-0.8-0.2-1.5-0.5-2-1l-0.8-3.1h-3.1v5.1c1.1,0.8,2.3,1.3,3.7,1.7c1.4,0.4,2.9,0.6,4.6,0.6c2.7,0,4.8-0.6,6.4-1.9
			c1.6-1.3,2.5-2.9,2.5-4.9c0-1.8-0.7-3.2-2.1-4.3s-3.6-1.9-6.4-2.5c-2-0.4-3.2-0.9-3.8-1.4c-0.6-0.5-1-1.2-1-2.1
			c0-0.9,0.4-1.7,1.1-2.4c0.7-0.6,1.8-1,3.3-1c1,0,1.8,0.1,2.6,0.4c0.8,0.3,1.4,0.7,1.9,1.2l0.7,2.8h3.1v-5H398.1z M371.4,296.3
			c0.9,1.1,1.3,2.5,1.3,4v0.6h-10.4v-0.1c0.2-1.8,0.8-3.3,1.8-4.3c1-1.2,2.2-1.8,3.6-1.8C369.2,294.7,370.5,295.2,371.4,296.3
			 M373,314.1c1.4-0.5,2.4-1.2,3.3-2l-1.6-2.7c-0.8,0.7-1.7,1.3-2.8,1.7c-1.1,0.4-2.3,0.6-3.7,0.6c-1.9,0-3.3-0.7-4.4-2.1
			s-1.6-3.2-1.7-5.4l0.1-0.1h14.7v-2.6c0-3.1-0.8-5.5-2.4-7.4c-1.6-1.9-3.8-2.8-6.9-2.8c-2.7,0-4.9,1.1-6.8,3.3
			c-1.9,2.2-2.9,4.9-2.9,8.1v0.9c0,3.3,0.9,6.1,2.8,8.2c1.9,2.1,4.3,3.2,7.5,3.2C370.1,314.9,371.6,314.7,373,314.1 M345.2,286.3
			v5.4h-3.6v3.1h3.6v13.7c0,2.2,0.5,3.8,1.5,4.8c1,1,2.4,1.5,3.9,1.5c0.8,0,1.5-0.1,2.3-0.2c0.8-0.2,1.3-0.4,1.7-0.6l-0.6-2.9
			c-0.3,0.1-0.7,0.1-1.2,0.2c-0.5,0.1-0.9,0.1-1.2,0.1c-0.7,0-1.3-0.2-1.8-0.7c-0.4-0.4-0.7-1.2-0.7-2.3v-13.5h4.3v-3.1h-4v-5.4
			h-4.2L345.2,286.3L345.2,286.3z M327.1,295v16.2l-3.5,0.6v2.7h11v-2.7l-3.5-0.6v-13c0.4-0.9,1-1.7,1.7-2.2s1.7-0.8,2.8-0.8
			l2.4,0.1l0.6-3.8c-0.2-0.1-0.4-0.1-0.8-0.2c-0.3,0-0.7-0.1-1-0.1c-1.2,0-2.3,0.3-3.3,1c-1,0.7-1.8,1.6-2.4,2.8l-0.4-3.3h-7.1v2.7
			L327.1,295z M305.5,310.7c-0.6-0.5-0.9-1.3-0.9-2.3c0-1.1,0.5-2.1,1.5-2.9c1-0.8,2.3-1.2,4-1.2h4.4v3.8c-0.5,0.9-1.3,1.7-2.5,2.4
			c-1.1,0.7-2.4,1-3.8,1C306.9,311.4,306,311.2,305.5,310.7 M320.3,314.5v-2.7l-1.7-0.2c0-0.3,0-0.6-0.1-0.8c0-0.3,0-0.6,0-0.9v-11
			c0-2.5-0.8-4.3-2.4-5.6c-1.6-1.3-3.7-2-6.2-2c-1.7,0-3.3,0.3-4.8,0.8c-1.5,0.5-2.7,1.2-3.8,2v4.4h3.2l0.4-2.4
			c0.5-0.5,1.1-0.8,1.9-1.1c0.8-0.3,1.7-0.4,2.8-0.4c1.5,0,2.7,0.4,3.5,1.2c0.8,0.8,1.3,1.8,1.3,3.2v2.7H310c-3.1,0-5.4,0.6-7.1,1.8
			c-1.8,1.2-2.6,2.9-2.6,4.9s0.6,3.8,1.9,4.9c1.2,1.2,3.1,1.7,5.4,1.7c1.4,0,2.7-0.3,3.8-1c1.2-0.7,2.2-1.5,3-2.6
			c0,0.5,0.1,1,0.1,1.5c0.1,0.5,0.2,1.1,0.3,1.7h5.4v-0.2H320.3z M295.7,287.9c-0.9-1.1-2.2-2.2-3.9-3.1c-1.8-0.9-3.8-1.4-6.1-1.4
			c-4,0-7.3,1.5-9.8,4.3c-2.5,3-3.8,6.6-3.8,11.1v0.4c0,4.4,1.3,8.1,3.8,11.1c2.6,3,5.8,4.4,9.8,4.4c2.3,0,4.3-0.4,6.1-1.3
			s3.1-1.9,3.9-3.1V305h-2.9l-0.8,4.3c-0.6,0.6-1.5,1.2-2.7,1.6s-2.4,0.7-3.8,0.7c-3,0-5.2-1.2-6.9-3.5c-1.7-2.3-2.5-5.2-2.5-8.8
			V299c0-3.6,0.9-6.4,2.6-8.8c1.7-2.3,4.2-3.5,7.3-3.5c1.4,0,2.6,0.2,3.5,0.6s1.8,1,2.5,1.6l0.8,4.3h2.9v-5.4L295.7,287.9
			L295.7,287.9z"/>
		<path fill="#D75F00" d="M542.7,300.6c1.9-2.5,2.6-3.3,3.3-3.3c0.7,0,2.9,9.2,2.9,14.3c0,4.9-4,12.1-4.8,12.7
			c-0.3,0.3-1.2,0.6-3.1,0.6l-0.3,0.8h10l0.3-0.8c-2.3,0-3.1-0.2-3.1-1c0-0.5,1-2.4,1.7-4.3l2-4.9c2.4-5.8,9.3-13,9.3-17.4
			c0-1.4-0.8-2.4-2-2.4c-1,0-1.9,0.9-1.9,1.9c0,1.1,0.8,0.9,0.8,1.9c0,2-3.8,10-6.4,14.5h-0.1c0-10.1-2.4-18.2-3.8-18.2
			c-1.2,0-3.2,1.8-5.5,5.1L542.7,300.6z M541,295.5h-3.8c0.4-2,1.3-4.3,2.3-6.2h-0.8c-2.5,3.8-4.5,5.8-7.1,7l-0.2,0.8h2.5l-2.8,13.2
			c-0.2,1-0.4,2.3-0.4,3c0,1.2,0.6,2,1.6,2c1.4,0,4.3-2.1,6.9-4.9l-0.5-0.6c-2.4,2.5-4,3.7-4.6,3.7c-0.5,0-0.6-0.5-0.3-1.8l3-14.6
			h3.8L541,295.5z M524,288.3c0,1,0.5,1.5,1.2,1.5c1.6,0,2.4-2.1,2.4-3.7c0-0.9-0.5-1.6-1.3-1.6C525.1,284.7,524,286.4,524,288.3
			 M518.8,300.3l1.8-1.8c0.4-0.4,0.8-0.6,1-0.6s0.3,0.2,0.2,0.7l-2.7,13.2c-0.1,0.5-0.2,1.4-0.2,1.9c0,1.1,0.5,1.7,1.3,1.7
			c1.4,0,3.9-2.5,6-4.9l-0.6-0.5c-1.3,1.6-2.6,3-3.1,3s-0.5-0.6-0.3-1.6l2.7-13.2c0.5-2.5,0-3-0.8-3c-1.3,0-3.8,2.5-5.8,4.8
			L518.8,300.3z M514,296c0.2-0.9,0-1.1-0.7-1.1h-1.1c-0.7,0-1.1,0.2-1.2,0.9l-0.8,3.9c-0.5,2.5-4.3,7.4-7.1,10.2
			c-1.4,1.4-2.5,2.4-3,2.4c-0.4,0-0.6-0.4-0.6-1.1c0-0.3,0-0.7,0.1-1.2l2.4-11.8c0.4-2.2,0.4-3.5-0.7-3.5c-1.3,0-3.8,2.5-5.8,5.4
			l0.6,0.3c1.3-1.7,2.1-2.5,2.5-2.5c0.3,0,0.3,0.3,0.1,1.6l-2,9.8c-0.2,1.3-0.4,2.2-0.4,3c0,1.7,0.5,2.7,1.4,2.7
			c1.1,0,3.5-2.3,5.7-4.6c0.9-0.9,3.1-3.1,5.5-6.6h0.1l-1.2,6.1c-0.2,1.3-0.4,2.6-0.4,3.3c0,1.3,0.3,1.8,0.9,1.8c1,0,4-2.8,6.2-5.6
			l-0.6-0.5c-1.5,1.9-2.5,2.9-3,2.9c-0.3,0-0.4-0.2-0.3-0.6L514,296z M491.9,295.9c0.1-0.8-0.1-1-1.1-1c-8.6,0-15.9,8.7-15.9,14.8
			c0,3,1.3,5.4,2.9,5.4c1.2,0,5.1-3.1,8.5-6.7l0.1,0.1l-2.4,11.7c-0.8,4-1.5,4.6-4.9,4.9l-0.2,0.9h11.4l0.2-0.9
			c-4.2,0-4.3-1.2-3.7-3.8L491.9,295.9z M486.7,307c-3.2,3.3-5.8,5.8-7,5.8c-1.1,0-1.7-1.3-1.7-3.8c0-2.2,0.8-6.3,3.7-9.2
			c1.6-1.6,3.5-2.3,7-2.5L486.7,307z M470.3,295.6h-0.9c-1.1,2.6-2.4,3.3-4.9,3.3h-9.4l2.7-13h9.1c3.8,0,5.5,1.4,5.1,5.4h0.8
			l1.4-6.7h-24.8l-0.2,0.9h1.2c2.8,0,3.3,1.5,2.9,3.7l-4.2,20.8c-0.5,2.6-1.7,3.8-4.9,3.8l-0.2,0.9h25.7l2.1-6.5h-0.8
			c-1.8,3-5.6,5.2-9.9,5.2h-4.3c-3.7,0-4.3-1.1-3.8-3.8l2-9.7h8.1c3.8,0,5.1,0.6,4.9,4h0.8L470.3,295.6z"/>
	</g>
	<g>
		<path fill="#999999" d="M565.5,291.8l-3.7-1.1l0.6-1.9l3.7,1.4l-0.1-4.2h2l-0.1,4.3l3.6-1.4l0.6,1.9l-3.7,1.1l2.4,3.3l-1.6,1.2
			l-2.3-3.6l-2.2,3.5l-1.6-1.2L565.5,291.8z"/>
	</g>
</g>
</svg>
