<?xml version="1.0" encoding="utf-8"?>
<!-- Generator: Adobe Illustrator 18.1.1, SVG Export Plug-In . SVG Version: 6.00 Build 0)  -->
<svg version="1.1" id="Capa_1" xmlns="http://www.w3.org/2000/svg" xmlns:xlink="http://www.w3.org/1999/xlink" x="0px" y="0px"
	 viewBox="0 0 225.1 72.9" enable-background="new 0 0 225.1 72.9" xml:space="preserve">
<g>
	<path fill="#D75F00" d="M176.8,14.9c4-5.2,5.6-6.9,7.2-6.9c1.6,0,6.1,19.6,6.1,30.5c0,10.3-8.7,25.8-10,27.2
		c-0.7,0.7-2.6,1.3-6.6,1.3l-0.7,1.7h21.4l0.7-1.7c-4.9-0.1-6.6-0.4-6.6-2.1c0-1,2.1-5.1,3.6-9l4.2-10.6c5-12.4,19.8-27.6,19.8-37.2
		c0-3-1.7-5.1-4.1-5.1c-2.2,0-4,1.9-4,3.9c0,2.4,1.7,2,1.7,3.9c0,4.2-8.1,21.4-13.6,30.9h-0.2c-0.1-21.5-5-38.8-8.2-38.8
		c-2.5,0-6.7,3.7-11.9,11.1L176.8,14.9z"/>
	<path fill="#383A35" d="M152.6,33.6c0-2.4,0.5-4.4,1.5-6c1-1.6,2.5-2.4,4.5-2.4c2,0,3.5,0.8,4.5,2.4c1,1.6,1.5,3.6,1.5,6V34
		c0,2.4-0.5,4.4-1.5,6c-1,1.6-2.5,2.4-4.5,2.4c-2,0-3.5-0.8-4.5-2.4c-1-1.6-1.5-3.6-1.5-6V33.6z M148.4,34c0,3.4,0.9,6.2,2.7,8.3
		c1.8,2.2,4.3,3.2,7.5,3.2c3.1,0,5.6-1.1,7.4-3.2c1.8-2.2,2.7-4.9,2.7-8.3v-0.5c0-3.4-0.9-6.2-2.7-8.3c-1.8-2.2-4.3-3.3-7.5-3.3
		c-3.1,0-5.6,1.1-7.4,3.3c-1.8,2.2-2.7,5-2.7,8.3V34z M141.8,12.4h-4.1v4.2h4.1V12.4z M134.3,45.2h11v-2.6l-3.4-0.6V22.4h-7.6v2.7
		l3.4,0.6v16.3l-3.4,0.6V45.2z M129.5,24.5c-0.9-0.8-2.1-1.4-3.4-1.9c-1.4-0.4-2.9-0.7-4.6-0.7c-2.5,0-4.6,0.7-6.2,2
		c-1.6,1.3-2.4,2.9-2.4,4.7c0,1.8,0.7,3.2,2.1,4.2c1.4,1,3.5,1.9,6.2,2.5c1.9,0.4,3.2,0.9,3.9,1.5c0.7,0.6,1,1.3,1,2.3
		c0,1-0.4,1.7-1.3,2.3c-0.8,0.6-2,0.9-3.5,0.9c-0.9,0-1.7-0.1-2.5-0.3c-0.8-0.2-1.5-0.5-1.9-0.9l-0.8-3h-3.1l0,5.2
		c1.1,0.8,2.3,1.3,3.7,1.7c1.4,0.4,2.9,0.6,4.6,0.6c2.6,0,4.8-0.6,6.4-1.9c1.6-1.2,2.4-2.9,2.4-4.9c0-1.8-0.7-3.2-2.1-4.3
		c-1.4-1.1-3.5-1.9-6.4-2.5c-1.9-0.4-3.2-0.9-3.8-1.4c-0.6-0.5-0.9-1.2-0.9-2.1c0-0.9,0.4-1.7,1.1-2.3c0.7-0.6,1.8-1,3.3-1
		c1,0,1.8,0.1,2.6,0.4c0.8,0.3,1.4,0.7,1.9,1.1l0.7,2.7h3.1L129.5,24.5z M102.8,26.9c0.9,1.1,1.3,2.5,1.3,4.1v0.5H93.6l0-0.1
		c0.2-1.8,0.8-3.2,1.8-4.4c1-1.2,2.2-1.8,3.6-1.8C100.6,25.3,101.9,25.8,102.8,26.9 M104.4,44.8c1.3-0.5,2.4-1.2,3.2-2l-1.6-2.7
		c-0.8,0.7-1.7,1.3-2.7,1.7c-1.1,0.4-2.3,0.6-3.7,0.6c-1.9,0-3.4-0.7-4.5-2.1c-1.1-1.4-1.6-3.2-1.7-5.4l0.1-0.1h14.8v-2.6
		c0-3.1-0.8-5.6-2.4-7.4c-1.6-1.9-3.9-2.8-7-2.8c-2.6,0-4.9,1.1-6.8,3.2c-1.9,2.2-2.9,4.8-2.9,8.1v0.9c0,3.4,0.9,6.1,2.8,8.2
		c1.9,2.1,4.4,3.2,7.6,3.2C101.4,45.6,103,45.3,104.4,44.8 M76.5,16.9v5.5h-3.6v3.1h3.6v13.8c0,2.2,0.5,3.8,1.5,4.8
		c1,1,2.3,1.5,4,1.5c0.8,0,1.5-0.1,2.3-0.2c0.8-0.2,1.3-0.4,1.7-0.6l-0.6-2.8c-0.3,0.1-0.7,0.1-1.1,0.2c-0.5,0.1-0.9,0.1-1.2,0.1
		c-0.7,0-1.3-0.2-1.8-0.7c-0.4-0.4-0.7-1.2-0.7-2.3V25.5h4.3v-3.1h-4.3v-5.5H76.5z M58.3,25.7v16.3l-3.4,0.6v2.6h11v-2.6l-3.4-0.6
		V28.9c0.4-0.9,1-1.6,1.7-2.2c0.7-0.5,1.7-0.8,2.8-0.8l2.4,0.1l0.5-3.8c-0.2-0.1-0.4-0.1-0.8-0.2c-0.3,0-0.7-0.1-1-0.1
		c-1.2,0-2.3,0.3-3.2,1c-0.9,0.7-1.7,1.6-2.4,2.7L62,22.4h-7.1v2.7L58.3,25.7z M36.5,41.4c-0.6-0.5-0.9-1.3-0.9-2.3
		c0-1.1,0.5-2.1,1.5-2.9s2.3-1.2,4-1.2h4.4v3.7c-0.5,0.9-1.3,1.7-2.4,2.4c-1.1,0.7-2.4,1-3.8,1C38.1,42.1,37.2,41.9,36.5,41.4
		 M51.4,45.2v-2.6l-1.7-0.2c0-0.3,0-0.6-0.1-0.8c0-0.3,0-0.6,0-0.9v-11c0-2.5-0.8-4.3-2.4-5.7c-1.6-1.3-3.7-2-6.3-2
		c-1.7,0-3.3,0.2-4.8,0.7c-1.5,0.5-2.7,1.2-3.8,2v4.4h3.2l0.4-2.4c0.5-0.5,1.1-0.8,1.9-1.1c0.8-0.3,1.7-0.4,2.7-0.4
		c1.5,0,2.7,0.4,3.5,1.2c0.8,0.8,1.3,1.8,1.3,3.2v2.6h-4.3c-3,0-5.4,0.6-7.2,1.8c-1.7,1.2-2.6,2.8-2.6,5c0,2.1,0.6,3.7,1.9,4.9
		c1.2,1.2,3,1.7,5.4,1.7c1.4,0,2.6-0.3,3.8-1c1.2-0.7,2.2-1.5,3-2.6c0,0.5,0.1,1,0.1,1.5c0.1,0.5,0.2,1,0.3,1.7H51.4z M26.7,18.5
		c-0.9-1.1-2.2-2.1-4-3c-1.8-0.9-3.8-1.4-6.1-1.4c-4.1,0-7.4,1.5-9.9,4.4S3,25.2,3,29.7v0.4c0,4.5,1.3,8.2,3.8,11.1
		c2.6,2.9,5.8,4.4,9.8,4.4c2.3,0,4.4-0.4,6.1-1.3c1.8-0.9,3.1-1.9,4-3v-5.4h-2.9L23,40.1c-0.6,0.6-1.5,1.2-2.6,1.6
		c-1.1,0.4-2.4,0.7-3.8,0.7c-3,0-5.3-1.2-7-3.5c-1.7-2.3-2.5-5.3-2.5-8.8v-0.5c0-3.5,0.9-6.5,2.6-8.8c1.7-2.3,4.2-3.5,7.3-3.5
		c1.4,0,2.5,0.2,3.5,0.6c1,0.4,1.8,1,2.5,1.6l0.8,4.3h2.9V18.5z"/>
</g>
</svg>
