<?xml version="1.0" encoding="utf-8"?>
<!-- Generator: Adobe Illustrator 18.1.1, SVG Export Plug-In . SVG Version: 6.00 Build 0)  -->
<svg version="1.1" id="Capa_1" xmlns="http://www.w3.org/2000/svg" xmlns:xlink="http://www.w3.org/1999/xlink" x="0px" y="0px"
	 viewBox="0 0 225.1 57.3" enable-background="new 0 0 225.1 57.3" xml:space="preserve">
<g>
	<path fill="#383A35" d="M152.6,30.2c0-2.4,0.5-4.4,1.5-6c1-1.6,2.5-2.4,4.5-2.4c2,0,3.5,0.8,4.5,2.4c1,1.6,1.5,3.6,1.5,6v0.5
		c0,2.4-0.5,4.4-1.5,6c-1,1.6-2.5,2.4-4.5,2.4c-2,0-3.5-0.8-4.5-2.4c-1-1.6-1.5-3.6-1.5-6V30.2z M148.4,30.7c0,3.4,0.9,6.2,2.7,8.3
		c1.8,2.2,4.3,3.2,7.5,3.2c3.1,0,5.6-1.1,7.4-3.2c1.8-2.2,2.7-4.9,2.7-8.3v-0.5c0-3.4-0.9-6.2-2.7-8.3c-1.8-2.2-4.3-3.3-7.5-3.3
		c-3.1,0-5.6,1.1-7.4,3.3c-1.8,2.2-2.7,5-2.7,8.3V30.7z M141.8,9h-4.1v4.2h4.1V9z M134.3,41.8h11v-2.6l-3.4-0.6V19h-7.6v2.7l3.4,0.6
		v16.3l-3.4,0.6V41.8z M129.5,21.2c-0.9-0.8-2.1-1.4-3.4-1.9c-1.4-0.4-2.9-0.7-4.6-0.7c-2.5,0-4.6,0.7-6.2,2
		c-1.6,1.3-2.4,2.9-2.4,4.7c0,1.8,0.7,3.2,2.1,4.2c1.4,1,3.5,1.9,6.2,2.5c1.9,0.4,3.2,0.9,3.9,1.5c0.7,0.6,1,1.3,1,2.3
		c0,1-0.4,1.7-1.3,2.3c-0.8,0.6-2,0.9-3.5,0.9c-0.9,0-1.7-0.1-2.5-0.3c-0.8-0.2-1.5-0.5-1.9-0.9l-0.8-3h-3.1l0,5.2
		c1.1,0.8,2.3,1.3,3.7,1.7c1.4,0.4,2.9,0.6,4.6,0.6c2.6,0,4.8-0.6,6.4-1.9c1.6-1.2,2.4-2.9,2.4-4.9c0-1.8-0.7-3.2-2.1-4.3
		c-1.4-1.1-3.5-1.9-6.4-2.5c-1.9-0.4-3.2-0.9-3.8-1.4c-0.6-0.5-0.9-1.2-0.9-2.1c0-0.9,0.4-1.7,1.1-2.3c0.7-0.6,1.8-1,3.3-1
		c1,0,1.8,0.1,2.6,0.4c0.8,0.3,1.4,0.7,1.9,1.1l0.7,2.7h3.1L129.5,21.2z M102.8,23.5c0.9,1.1,1.3,2.5,1.3,4.1v0.5H93.6l0-0.1
		c0.2-1.8,0.8-3.2,1.8-4.4c1-1.2,2.2-1.8,3.6-1.8C100.6,21.9,101.9,22.4,102.8,23.5 M104.4,41.4c1.3-0.5,2.4-1.2,3.2-2l-1.6-2.7
		c-0.8,0.7-1.7,1.3-2.7,1.7c-1.1,0.4-2.3,0.6-3.7,0.6c-1.9,0-3.4-0.7-4.5-2.1c-1.1-1.4-1.6-3.2-1.7-5.4l0.1-0.1h14.8v-2.6
		c0-3.1-0.8-5.6-2.4-7.4c-1.6-1.9-3.9-2.8-7-2.8c-2.6,0-4.9,1.1-6.8,3.2c-1.9,2.2-2.9,4.8-2.9,8.1v0.9c0,3.4,0.9,6.1,2.8,8.2
		c1.9,2.1,4.4,3.2,7.6,3.2C101.4,42.2,103,42,104.4,41.4 M76.5,13.5V19h-3.6v3.1h3.6v13.8c0,2.2,0.5,3.8,1.5,4.8c1,1,2.3,1.5,4,1.5
		c0.8,0,1.5-0.1,2.3-0.2c0.8-0.2,1.3-0.4,1.7-0.6l-0.6-2.8c-0.3,0.1-0.7,0.1-1.1,0.2c-0.5,0.1-0.9,0.1-1.2,0.1
		c-0.7,0-1.3-0.2-1.8-0.7c-0.4-0.4-0.7-1.2-0.7-2.3V22.1h4.3V19h-4.3v-5.5H76.5z M58.3,22.3v16.3l-3.4,0.6v2.6h11v-2.6l-3.4-0.6
		V25.5c0.4-0.9,1-1.6,1.7-2.2c0.7-0.5,1.7-0.8,2.8-0.8l2.4,0.1l0.5-3.8c-0.2-0.1-0.4-0.1-0.8-0.2c-0.3,0-0.7-0.1-1-0.1
		c-1.2,0-2.3,0.3-3.2,1c-0.9,0.7-1.7,1.6-2.4,2.7L62,19h-7.1v2.7L58.3,22.3z M36.5,38c-0.6-0.5-0.9-1.3-0.9-2.3
		c0-1.1,0.5-2.1,1.5-2.9c1-0.8,2.3-1.2,4-1.2h4.4v3.7c-0.5,0.9-1.3,1.7-2.4,2.4c-1.1,0.7-2.4,1-3.8,1C38.1,38.8,37.2,38.5,36.5,38
		 M51.4,41.8v-2.6l-1.7-0.2c0-0.3,0-0.6-0.1-0.8c0-0.3,0-0.6,0-0.9v-11c0-2.5-0.8-4.3-2.4-5.7c-1.6-1.3-3.7-2-6.3-2
		c-1.7,0-3.3,0.2-4.8,0.7c-1.5,0.5-2.7,1.2-3.8,2v4.4h3.2l0.4-2.4c0.5-0.5,1.1-0.8,1.9-1.1c0.8-0.3,1.7-0.4,2.7-0.4
		c1.5,0,2.7,0.4,3.5,1.2c0.8,0.8,1.3,1.8,1.3,3.2v2.6h-4.3c-3,0-5.4,0.6-7.2,1.8c-1.7,1.2-2.6,2.8-2.6,5c0,2.1,0.6,3.7,1.9,4.9
		c1.2,1.2,3,1.7,5.4,1.7c1.4,0,2.6-0.3,3.8-1c1.2-0.7,2.2-1.5,3-2.6c0,0.5,0.1,1,0.1,1.5c0.1,0.5,0.2,1,0.3,1.7H51.4z M26.7,15.1
		c-0.9-1.1-2.2-2.1-4-3c-1.8-0.9-3.8-1.4-6.1-1.4c-4.1,0-7.4,1.5-9.9,4.4S3,21.8,3,26.3v0.4c0,4.5,1.3,8.2,3.8,11.1
		c2.6,2.9,5.8,4.4,9.8,4.4c2.3,0,4.4-0.4,6.1-1.3c1.8-0.9,3.1-1.9,4-3v-5.4h-2.9L23,36.7c-0.6,0.6-1.5,1.2-2.6,1.6
		C19.3,38.8,18,39,16.6,39c-3,0-5.3-1.2-7-3.5c-1.7-2.3-2.5-5.3-2.5-8.8v-0.5c0-3.5,0.9-6.5,2.6-8.8c1.7-2.3,4.2-3.5,7.3-3.5
		c1.4,0,2.5,0.2,3.5,0.6c1,0.4,1.8,1,2.5,1.6l0.8,4.3h2.9V15.1z"/>
	<path fill="#3FAE2A" d="M175.7,19.2c4-6.9,5.9-9,8.2-9c1.7,0,2.6,1.2,4.3,5.4l6,15.1l-5.6,6.9c-3.8,4.7-7.3,8.3-11,8.3
		c-2.4,0-3.9-1.8-3.9-6.5h-2.1c-1.8,4.6-2.7,8.3-2.7,10.5c0,2.5,1.3,4,3.4,4c4,0,9.1-4.1,17.4-14.2l5.3-6.5l6.3,15.6
		c1.3,3.3,3.1,5.1,5.4,5.1c4.4,0,9.2-7.6,12.2-14.2l-1.8-0.9c-3.3,6.6-4.9,8.5-6.9,8.5c-1.7,0-3-1.9-5.2-7.6l-5.1-13l6.6-8.8
		c3.8-5,6.7-7.1,9.9-7.1c2.7,0,4.4,1.8,4.5,4.7h2.1c0.7-2.7,0.8-3.9,0.8-5.6c0-3.3-2.1-5.8-5-5.8c-4,0-8.5,5-13.6,11.8l-6.4,8.5
		l-4.4-11.4c-2.8-7.5-4.4-9-7.6-9c-3.9,0-7.2,3.4-13.4,13.7L175.7,19.2z"/>
</g>
</svg>
