<?xml version="1.0" encoding="utf-8"?>
<!-- Generator: Adobe Illustrator 18.1.1, SVG Export Plug-In . SVG Version: 6.00 Build 0)  -->
<svg version="1.1" id="Capa_1" xmlns="http://www.w3.org/2000/svg" xmlns:xlink="http://www.w3.org/1999/xlink" x="0px" y="0px"
	 width="72.8px" height="35.1px" viewBox="-443 263.9 72.8 35.1" enable-background="new -443 263.9 72.8 35.1"
	 xml:space="preserve">
<g>
	<path fill="#FFFFFF" d="M-377.4,273.2c0-1,0.2-1.9,0.7-2.6c0.4-0.7,1.1-1,2-1s1.5,0.3,2,1c0.4,0.7,0.7,1.6,0.7,2.6v0.2
		c0,1.1-0.2,1.9-0.7,2.6c-0.4,0.7-1.1,1-2,1s-1.5-0.3-2-1c-0.4-0.7-0.7-1.6-0.7-2.6V273.2z M-379.2,273.4c0,1.5,0.4,2.7,1.2,3.7
		s1.9,1.4,3.3,1.4s2.5-0.5,3.3-1.4s1.2-2.2,1.2-3.7v-0.2c0-1.5-0.4-2.7-1.2-3.7s-1.9-1.4-3.3-1.4s-2.5,0.5-3.3,1.4
		c-0.8,1-1.2,2.2-1.2,3.7V273.4z M-382.1,263.9h-1.8v1.9h1.8V263.9z M-385.4,278.3h4.8v-1.2l-1.5-0.2v-8.6h-3.3v1.2l1.5,0.3v7.1
		l-1.5,0.3C-385.4,277.2-385.4,278.3-385.4,278.3z M-387.5,269.2c-0.4-0.3-0.9-0.6-1.5-0.8s-1.3-0.3-2-0.3c-1.1,0-2,0.3-2.7,0.9
		s-1,1.3-1,2.1c0,0.8,0.3,1.4,0.9,1.8c0.6,0.5,1.5,0.8,2.7,1.1c0.8,0.2,1.4,0.4,1.7,0.7c0.3,0.3,0.5,0.6,0.5,1s-0.2,0.8-0.5,1
		c-0.4,0.3-0.9,0.4-1.5,0.4c-0.4,0-0.7,0-1.1-0.1s-0.6-0.2-0.9-0.4l-0.3-1.3h-1.4v2.3c0.5,0.3,1,0.6,1.6,0.8s1.3,0.3,2,0.3
		c1.2,0,2.1-0.3,2.8-0.8c0.7-0.5,1.1-1.3,1.1-2.2c0-0.8-0.3-1.4-0.9-1.9s-1.6-0.8-2.8-1.1c-0.8-0.2-1.4-0.4-1.7-0.6
		c-0.3-0.2-0.4-0.5-0.4-0.9s0.2-0.7,0.5-1s0.8-0.4,1.4-0.4c0.4,0,0.8,0.1,1.1,0.2c0.3,0.1,0.6,0.3,0.8,0.5l0.3,1.2h1.4L-387.5,269.2
		z M-399.2,270.3c0.4,0.5,0.6,1.1,0.6,1.8v0.2h-4.6l0,0c0.1-0.8,0.4-1.4,0.8-1.9s1-0.8,1.6-0.8
		C-400.2,269.6-399.6,269.8-399.2,270.3 M-398.5,278.1c0.6-0.2,1.1-0.5,1.4-0.9l-0.7-1.2c-0.3,0.3-0.7,0.5-1.2,0.7s-1,0.3-1.6,0.3
		c-0.8,0-1.5-0.3-2-0.9s-0.7-1.4-0.7-2.4l0,0h6.5v-1.1c0-1.4-0.3-2.4-1-3.2c-0.7-0.8-1.7-1.2-3.1-1.2c-1.2,0-2.2,0.5-3,1.4
		s-1.3,2.1-1.3,3.5v0.4c0,1.5,0.4,2.7,1.2,3.6c0.8,0.9,1.9,1.4,3.3,1.4C-399.8,278.5-399.1,278.4-398.5,278.1 M-410.8,265.9v2.4
		h-1.6v1.3h1.6v6.1c0,1,0.2,1.7,0.7,2.1c0.4,0.4,1,0.7,1.8,0.7c0.3,0,0.7,0,1-0.1s0.6-0.2,0.8-0.3l-0.3-1.2c-0.1,0-0.3,0.1-0.5,0.1
		s-0.4,0-0.5,0c-0.3,0-0.6-0.1-0.8-0.3c-0.2-0.2-0.3-0.5-0.3-1v-6h1.9v-1.4h-1.9v-2.4L-410.8,265.9L-410.8,265.9z M-418.7,269.7v7.2
		l-1.5,0.3v1.2h4.8v-1.2l-1.5-0.3v-5.8c0.2-0.4,0.4-0.7,0.8-0.9c0.3-0.2,0.7-0.3,1.2-0.3l1,0.1l0.2-1.7c-0.1,0-0.2,0-0.3-0.1
		c-0.2,0-0.3,0-0.4,0c-0.5,0-1,0.1-1.4,0.4s-0.8,0.7-1,1.2l-0.2-1.4h-3.1v1.2L-418.7,269.7z M-428.3,276.6c-0.3-0.2-0.4-0.6-0.4-1
		c0-0.5,0.2-0.9,0.7-1.3c0.4-0.3,1-0.5,1.8-0.5h1.9v1.6c-0.2,0.4-0.6,0.8-1.1,1c-0.5,0.3-1,0.4-1.7,0.4
		C-427.6,277-428,276.9-428.3,276.6 M-421.7,278.3v-1.2l-0.7-0.1c0-0.1,0-0.2,0-0.4c0-0.1,0-0.2,0-0.4v-4.7c0-1.1-0.4-1.9-1.1-2.5
		s-1.6-0.9-2.8-0.9c-0.8,0-1.5,0.1-2.1,0.3s-1.2,0.5-1.7,0.9v1.9h1.4l0.2-1.1c0.2-0.2,0.5-0.4,0.8-0.5s0.7-0.2,1.2-0.2
		c0.7,0,1.2,0.2,1.5,0.5c0.4,0.3,0.6,0.8,0.6,1.4v1.2h-1.9c-1.3,0-2.4,0.3-3.2,0.8s-1.1,1.2-1.1,2.2c0,0.9,0.3,1.6,0.8,2.1
		s1.3,0.8,2.4,0.8c0.6,0,1.2-0.1,1.7-0.4s1-0.7,1.3-1.1c0,0.2,0,0.4,0.1,0.6c0,0.2,0.1,0.5,0.1,0.7h2.5L-421.7,278.3L-421.7,278.3z
		 M-432.6,266.6c-0.4-0.5-1-0.9-1.7-1.3c-0.8-0.4-1.7-0.6-2.7-0.6c-1.8,0-3.2,0.6-4.3,1.9c-1.1,1.3-1.7,2.9-1.7,4.9v0.2
		c0,2,0.6,3.6,1.7,4.9s2.6,1.9,4.3,1.9c1,0,1.9-0.2,2.7-0.6c0.8-0.4,1.4-0.8,1.7-1.3v-2.4h-1.3l-0.3,1.9c-0.3,0.3-0.7,0.5-1.2,0.7
		s-1,0.3-1.6,0.3c-1.3,0-2.3-0.5-3.1-1.5c-0.7-1-1.1-2.3-1.1-3.9v-0.2c0-1.6,0.4-2.8,1.1-3.9c0.8-1,1.8-1.5,3.2-1.5
		c0.6,0,1.1,0.1,1.5,0.3s0.8,0.4,1.1,0.7l0.3,1.9h1.3v-2.4H-432.6z"/>
	<path fill="#D75F00" d="M-378,289.3c0.7-1,1-1.2,1.3-1.2s1.1,3.6,1.1,5.5c0,1.8-1.6,4.6-1.8,4.9c-0.1,0.1-0.4,0.3-1.2,0.3l-0.1,0.3
		h3.8l0.1-0.3c-0.9,0-1.2-0.1-1.2-0.3c0-0.2,0.3-0.9,0.6-1.7l0.8-1.9c0.9-2.3,3.6-5,3.6-6.7c0-0.5-0.3-0.9-0.8-0.9
		c-0.3,0-0.7,0.3-0.7,0.7c0,0.4,0.3,0.3,0.3,0.7c0,0.8-1.5,3.8-2.4,5.6l0,0c0-3.8-0.9-7-1.5-7c-0.4,0-1.2,0.7-2.2,2H-378z
		 M-378.7,287.4h-1.5c0.2-0.8,0.5-1.7,0.9-2.4h-0.3c-1,1.5-1.7,2.3-2.7,2.7l-0.1,0.3h1l-1,5c-0.1,0.3-0.2,0.9-0.2,1.1
		c0,0.4,0.3,0.8,0.6,0.8c0.5,0,1.7-0.8,2.7-1.8l-0.2-0.3c-0.9,1-1.6,1.4-1.7,1.4s-0.3-0.2-0.1-0.7l1.1-5.6h1.5L-378.7,287.4
		L-378.7,287.4z M-385.3,284.6c0,0.3,0.2,0.6,0.4,0.6c0.6,0,0.9-0.8,0.9-1.4c0-0.3-0.2-0.6-0.5-0.6S-385.3,283.9-385.3,284.6
		 M-387.3,289.2l0.7-0.7c0.2-0.2,0.3-0.3,0.3-0.3s0.1,0.1,0.1,0.3l-1,5c0,0.2-0.1,0.5-0.1,0.7c0,0.4,0.2,0.6,0.5,0.6
		c0.5,0,1.5-1,2.3-1.9l-0.3-0.2c-0.5,0.6-1,1.1-1.1,1.1s-0.2-0.3-0.1-0.6l1-5c0.2-1,0-1.1-0.3-1.1c-0.5,0-1.5,1-2.3,1.8
		L-387.3,289.2z M-389,287.5c0.1-0.3,0-0.4-0.3-0.4h-0.4c-0.3,0-0.4,0.1-0.4,0.3l-0.3,1.5c-0.2,1-1.7,2.9-2.7,3.9
		c-0.5,0.5-1,0.9-1.1,0.9s-0.3-0.2-0.3-0.4c0-0.1,0-0.3,0.1-0.4l0.9-4.5c0.2-0.9,0.2-1.3-0.3-1.3s-1.5,1-2.3,2.1l0.3,0.1
		c0.5-0.6,0.8-1,1-1c0.1,0,0.1,0.1,0,0.6l-0.8,3.7c-0.1,0.5-0.2,0.8-0.2,1.1c0,0.6,0.2,1,0.5,1c0.4,0,1.3-0.9,2.2-1.7
		c0.3-0.3,1.2-1.2,2.2-2.5h0.1l-0.5,2.5c-0.1,0.5-0.2,1-0.2,1.2c0,0.5,0.1,0.7,0.3,0.7c0.3,0,1.6-1,2.4-2.2l-0.3-0.2
		c-0.6,0.7-1,1.1-1.1,1.1s-0.2-0.1-0.1-0.3L-389,287.5z M-397.5,287.5c0.1-0.3,0-0.3-0.4-0.3c-3.3,0-6.1,3.3-6.1,5.7
		c0,1.1,0.5,2.1,1.1,2.1c0.4,0,2-1.1,3.3-2.6l0,0l-0.9,4.4c-0.3,1.6-0.6,1.7-1.9,1.8l-0.1,0.3h4.4l0.1-0.3c-1.6,0-1.7-0.4-1.4-1.5
		L-397.5,287.5z M-399.5,291.8c-1.2,1.3-2.3,2.3-2.7,2.3c-0.4,0-0.6-0.5-0.6-1.4s0.3-2.4,1.4-3.6c0.6-0.6,1.3-0.9,2.7-1
		L-399.5,291.8z M-405.8,287.5h-0.3c-0.4,1-0.9,1.2-1.9,1.2h-3.7l1-5h3.5c1.4,0,2.2,0.5,2,2.1h0.3l0.5-2.5h-9.5l-0.1,0.3h0.4
		c1,0,1.3,0.5,1.1,1.4l-1.7,8c-0.2,1-0.6,1.5-1.9,1.5v0.3h9.8l0.8-2.5h-0.3c-0.7,1.1-2.2,2-3.8,2h-1.7c-1.4,0-1.7-0.4-1.5-1.4
		l0.8-3.7h3.1c1.5,0,2,0.3,1.8,1.6h0.3L-405.8,287.5z"/>
</g>
</svg>
